<?xml version="1.0" encoding="UTF-8"?>
<svg id="_Слой_2" data-name="Слой 2" xmlns="http://www.w3.org/2000/svg" viewBox="0 0 233.03 51.28">
  <defs>
    <style>
      .cls-1 {
        fill: #f02a1e;
      }
    </style>
  </defs>
  <g id="_Слой_1-2" data-name="Слой 1">
    <g>
      <polygon class="cls-1" points="37.28 51.05 25.4 51.05 25.4 49.1 35.33 49.1 35.33 30.38 37.28 30.38 37.28 51.05"/>
      <g>
        <polygon class="cls-1" points="43.45 51.28 41.51 51.28 41.51 17.9 36.17 12.15 21.48 29.37 6.69 12.17 1.95 17.63 1.95 51.28 0 51.28 0 16.91 6.69 9.19 21.47 26.38 36.11 9.22 43.45 17.14 43.45 51.28"/>
        <polygon class="cls-1" points="21.72 41.96 .25 17.92 1.7 16.62 21.73 39.05 41.76 16.87 43.2 18.17 21.72 41.96"/>
        <polygon class="cls-1" points="18.05 51.05 6.17 51.05 6.17 30.38 8.12 30.38 8.12 49.1 18.05 49.1 18.05 51.05"/>
        <polygon class="cls-1" points="10.8 15.24 9.32 13.97 21.24 0 32.7 13.99 31.19 15.22 21.21 3.04 10.8 15.24"/>
      </g>
    </g>
    <g>
      <path class="cls-1" d="M71.16,27.15h-.27l-3.27,7.45h-2.62l-3.32-7.45h-.27v7.45h-3.23v-12.35h4.5l3.46,7.79h.32l3.48-7.79h4.45v12.35h-3.23v-7.45Z"/>
      <path class="cls-1" d="M78.89,20.86c.99,0,1.61,.63,1.61,1.61s-.63,1.61-1.61,1.61-1.63-.61-1.63-1.61,.65-1.61,1.63-1.61Zm-1.6,4.24h3.19v9.5h-3.19v-9.5Z"/>
      <path class="cls-1" d="M83.09,25.09h3.19v.99c.7-.76,1.69-1.22,2.83-1.22,2.91,0,3.86,2.18,3.86,4.81v4.92h-3.19v-4.88c0-1.04-.63-1.84-1.63-1.84-1.14,0-1.82,.7-1.86,1.88v4.84h-3.19v-9.5Z"/>
      <path class="cls-1" d="M105.28,31.02v.61c-.59,1.8-2.58,3.19-5.17,3.19-3.02,0-5.24-1.94-5.24-4.98s2.22-4.98,5.24-4.98c2.85,0,4.9,1.71,5.17,4.22v1.18h-7.16c.15,1.04,.91,1.67,2,1.67,.78,0,1.46-.28,1.82-.91h3.34Zm-6.97-2.45h3.61c-.32-.67-.91-1.04-1.8-1.04-.84,0-1.48,.38-1.8,1.04Z"/>
      <path class="cls-1" d="M107.37,25.09h3.19v.99c.7-.76,1.69-1.22,2.83-1.22v3.31c-.25-.06-.67-.1-.97-.1-.86,0-1.65,.46-1.86,1.29v5.22h-3.19v-9.5Z"/>
      <path class="cls-1" d="M124.89,34.59h-3.19v-.89c-.74,.72-1.71,1.12-2.83,1.12-2.45,0-4.24-1.94-4.24-4.98s1.79-4.98,4.24-4.98c1.12,0,2.09,.42,2.83,1.14v-.91h3.19v9.5Zm-3.08-4.75c0-1.23-.78-1.98-1.98-1.98s-1.98,.74-1.98,1.98,.78,1.98,1.98,1.98,1.98-.74,1.98-1.98Z"/>
      <path class="cls-1" d="M127.51,21.29h3.19v13.3h-3.19v-13.3Z"/>
      <path class="cls-1" d="M142.48,28.63h-3.31c-.11-.55-.84-1.08-1.63-1.08s-1.31,.23-1.31,.72c0,1.48,6.36-.02,6.36,3.53,0,1.75-1.82,3.02-4.79,3.02-2.41,0-4.6-1.18-5.22-3.12v-.59h3.3c.21,.68,1.03,1.14,1.82,1.14,.93,0,1.44-.34,1.44-.74,0-1.16-6.29,.1-6.29-3.51,0-1.71,1.9-3.13,4.64-3.13s4.41,1.39,4.98,3.17v.59Z"/>
      <path class="cls-1" d="M149.63,22.24h3.23v9.54h6.21v2.81h-9.44v-12.35Z"/>
      <path class="cls-1" d="M170.68,31.02v.61c-.59,1.8-2.58,3.19-5.17,3.19-3.02,0-5.24-1.94-5.24-4.98s2.22-4.98,5.24-4.98c2.85,0,4.9,1.71,5.17,4.22v1.18h-7.16c.15,1.04,.91,1.67,2,1.67,.78,0,1.46-.28,1.82-.91h3.34Zm-6.97-2.45h3.61c-.32-.67-.91-1.04-1.8-1.04-.84,0-1.48,.38-1.8,1.04Z"/>
      <path class="cls-1" d="M182.5,34.59h-3.19v-.89c-.74,.72-1.71,1.12-2.83,1.12-2.45,0-4.24-1.94-4.24-4.98s1.79-4.98,4.24-4.98c1.12,0,2.09,.42,2.83,1.14v-.91h3.19v9.5Zm-3.08-4.75c0-1.23-.78-1.98-1.98-1.98s-1.98,.74-1.98,1.98,.78,1.98,1.98,1.98,1.98-.74,1.98-1.98Z"/>
      <path class="cls-1" d="M185.12,25.09h3.19v.99c.7-.76,1.69-1.22,2.83-1.22v3.31c-.25-.06-.67-.1-.97-.1-.86,0-1.65,.46-1.86,1.29v5.22h-3.19v-9.5Z"/>
      <path class="cls-1" d="M192.91,25.09h3.19v.99c.7-.76,1.69-1.22,2.83-1.22,2.91,0,3.86,2.18,3.86,4.81v4.92h-3.19v-4.88c0-1.04-.63-1.84-1.63-1.84-1.14,0-1.82,.7-1.86,1.88v4.84h-3.19v-9.5Z"/>
      <path class="cls-1" d="M206.8,20.86c.99,0,1.61,.63,1.61,1.61s-.63,1.61-1.61,1.61-1.63-.61-1.63-1.61,.65-1.61,1.63-1.61Zm-1.6,4.24h3.19v9.5h-3.19v-9.5Z"/>
      <path class="cls-1" d="M211,25.09h3.19v.99c.7-.76,1.69-1.22,2.83-1.22,2.91,0,3.86,2.18,3.86,4.81v4.92h-3.19v-4.88c0-1.04-.63-1.84-1.63-1.84-1.14,0-1.82,.7-1.86,1.88v4.84h-3.19v-9.5Z"/>
      <path class="cls-1" d="M226.12,34.21c.3,.49,1.01,.67,1.71,.67,1.31,0,2.01-.74,2.01-1.98v-.32c-.74,.78-1.77,1.2-2.96,1.2-2.37,0-4.1-1.71-4.1-4.45s1.73-4.46,4.1-4.46c1.2,0,2.22,.46,2.96,1.23v-1.01h3.19v7.66c0,3.04-2.18,4.98-5.21,4.98-2.62,0-4.35-1.35-5.05-2.91v-.61h3.34Zm3.84-4.88c0-.93-.78-1.5-1.98-1.5s-1.98,.57-1.98,1.5,.78,1.5,1.98,1.5,1.98-.55,1.98-1.5Z"/>
    </g>
  </g>
</svg>